<svg width="25" height="25" viewBox="0 0 25 25" fill="none" xmlns="http://www.w3.org/2000/svg">
<path d="M1.11621 21.8281C0.618164 22.3262 0.603516 23.1758 1.11621 23.6738C1.62891 24.1719 2.47852 24.1719 2.97656 23.6738L12.3516 14.2988L21.7266 23.6738C22.2246 24.1719 23.0889 24.1865 23.5869 23.6738C24.085 23.1611 24.085 22.3262 23.5869 21.8281L14.2119 12.4385L23.5869 3.06348C24.085 2.56543 24.0996 1.71582 23.5869 1.21777C23.0742 0.705078 22.2246 0.705078 21.7266 1.21777L12.3516 10.5928L2.97656 1.21777C2.47852 0.705078 1.61426 0.69043 1.11621 1.21777C0.618164 1.73047 0.618164 2.56543 1.11621 3.06348L10.4912 12.4385L1.11621 21.8281Z" fill="#175676"/>
</svg>
