<svg width="20" height="20" viewBox="0 0 20 20" fill="none" xmlns="http://www.w3.org/2000/svg">
<path id="Shape" fill-rule="evenodd" clip-rule="evenodd" d="M15.9966 14.5757L19.7291 18.2696C20.0957 18.6689 20.0957 19.3012 19.6958 19.7005C19.5291 19.9002 19.2625 20 18.9959 20C18.7293 20 18.496 19.9002 18.2961 19.7005L14.5969 16.0067C13.0305 17.2712 11.031 17.9701 8.99806 17.9701C6.56525 17.9701 4.3324 17.005 2.63277 15.3411C0.933133 13.6439 0 11.4143 0 8.98503C0 6.55574 0.933133 4.32612 2.63277 2.62895C4.3324 0.93178 6.59858 0 8.99806 0C11.3975 0 13.6304 0.93178 15.33 2.62895C18.5627 5.8569 18.8293 11.0483 15.9966 14.5757ZM13.9333 13.9333C15.2667 12.6333 16 10.8667 16 9C16 7.1 15.2333 5.4 13.9333 4.06667C12.6333 2.73333 10.8667 2 9 2C7.1 2 5.4 2.76667 4.06667 4.06667C2.73333 5.36667 2 7.13333 2 9C2 10.8667 2.76667 12.6 4.06667 13.9333C5.36667 15.2667 7.13333 16 9 16C10.8667 16 12.6 15.2333 13.9333 13.9333Z" fill="white"/>
</svg>
