<svg width="25" height="25" viewBox="0 0 25 25" fill="none" xmlns="http://www.w3.org/2000/svg">
<path d="M24.8724 8.5485C24.8863 8.38074 24.865 8.21138 24.8098 8.05126C24.7547 7.89107 24.667 7.74359 24.5524 7.61822C24.4378 7.49285 24.2987 7.39231 24.144 7.32304C23.9893 7.2537 23.8224 7.21721 23.654 7.21584C23.4856 7.21441 23.3193 7.24817 23.1657 7.31487C23.0122 7.38156 22.8748 7.47983 22.7622 7.60331C22.6496 7.72679 22.5644 7.87282 22.512 8.03211C22.4596 8.19132 22.441 8.36037 22.4576 8.52836L22.5532 20.8645L2.02126 0.318774C1.78802 0.108538 1.48464 -0.00547564 1.17347 0.000202329C0.862371 0.0058803 0.56724 0.130796 0.348974 0.349208C0.130708 0.567621 0.00587635 0.862951 0.000202193 1.17426C-0.00547196 1.48556 0.108465 1.78922 0.31856 2.02254L20.8505 22.5682L8.52006 22.4557C8.20223 22.4604 7.90044 22.5875 7.67741 22.8107C7.45445 23.0338 7.32743 23.3358 7.32274 23.6539C7.3238 23.8126 7.35618 23.9702 7.41799 24.1173C7.4798 24.2646 7.56983 24.3986 7.68293 24.5118C7.79604 24.625 7.92995 24.715 8.0771 24.7769C8.22417 24.8388 8.38161 24.8712 8.54019 24.8722L23.8022 24.9996C23.9616 25.0039 24.1198 24.9761 24.2671 24.9176C24.4144 24.8593 24.548 24.7714 24.6599 24.6596C24.7716 24.5477 24.8594 24.4141 24.9177 24.2666C24.9761 24.1192 25.0039 23.9609 24.9996 23.8013L24.8724 8.5485Z" fill="#175676"/>
</svg>
